<svg width="28" height="28" viewBox="0 0 28 28" fill="none" xmlns="http://www.w3.org/2000/svg">
<path d="M20.1607 5.58833C19.2454 4.52602 18.7409 3.16202 18.7411 1.75H14.6027V18.6278C14.5714 19.5413 14.1922 20.4069 13.5451 21.0417C12.8979 21.6766 12.0334 22.0311 11.1339 22.0306C9.23214 22.0306 7.65179 20.4517 7.65179 18.4917C7.65179 16.1506 9.875 14.3947 12.1652 15.1161V10.815C7.54464 10.1889 3.5 13.8367 3.5 18.4917C3.5 23.0242 7.19643 26.25 11.1205 26.25C15.3259 26.25 18.7411 22.7792 18.7411 18.4917V9.93028C20.4192 11.1551 22.434 11.8122 24.5 11.8086V7.60278C24.5 7.60278 21.9821 7.72528 20.1607 5.58833Z" fill="#F4F4F4"/>
</svg>
