<svg width="32" height="32" viewBox="0 0 32 32" fill="none" xmlns="http://www.w3.org/2000/svg">
<path d="M24.9428 8.94289C25.4635 8.42219 25.4635 7.57797 24.9428 7.05727C24.4221 6.53657 23.5779 6.53657 23.0572 7.05727L16 14.1145L8.9428 7.05727C8.4221 6.53657 7.57788 6.53657 7.05718 7.05727C6.53648 7.57797 6.53648 8.42219 7.05718 8.94289L14.1144 16.0001L7.05718 23.0573C6.53648 23.578 6.53648 24.4222 7.05718 24.9429C7.57788 25.4636 8.4221 25.4636 8.9428 24.9429L16 17.8857L23.0572 24.9429C23.5779 25.4636 24.4221 25.4636 24.9428 24.9429C25.4635 24.4222 25.4635 23.578 24.9428 23.0573L17.8856 16.0001L24.9428 8.94289Z" fill="#F4F4F4"/>
</svg>
