<svg width="32" height="32" viewBox="0 0 32 32" fill="none" xmlns="http://www.w3.org/2000/svg">
<path d="M2.66663 8.00008C2.66663 7.2637 3.26358 6.66675 3.99996 6.66675H28C28.7363 6.66675 29.3333 7.2637 29.3333 8.00008C29.3333 8.73646 28.7363 9.33341 28 9.33341H3.99996C3.26358 9.33341 2.66663 8.73646 2.66663 8.00008Z" fill="#F4F4F4"/>
<path d="M2.66663 16.0001C2.66663 15.2637 3.26358 14.6667 3.99996 14.6667H28C28.7363 14.6667 29.3333 15.2637 29.3333 16.0001C29.3333 16.7365 28.7363 17.3334 28 17.3334H3.99996C3.26358 17.3334 2.66663 16.7365 2.66663 16.0001Z" fill="#F4F4F4"/>
<path d="M3.99996 22.6667C3.26358 22.6667 2.66663 23.2637 2.66663 24.0001C2.66663 24.7365 3.26358 25.3334 3.99996 25.3334H28C28.7363 25.3334 29.3333 24.7365 29.3333 24.0001C29.3333 23.2637 28.7363 22.6667 28 22.6667H3.99996Z" fill="#F4F4F4"/>
</svg>
