<svg width="28" height="28" viewBox="0 0 28 28" fill="none" xmlns="http://www.w3.org/2000/svg">
<g clip-path="url(#clip0_976_388)">
<path fill-rule="evenodd" clip-rule="evenodd" d="M11.9518 8.87917C11.5906 8.67379 11.1475 8.67596 10.7884 8.88485C10.4293 9.09375 10.2084 9.47786 10.2084 9.89331V17.5233C10.2084 17.9388 10.4293 18.3229 10.7884 18.5318C11.1475 18.7407 11.5906 18.7428 11.9518 18.5375L18.6601 14.7225C19.0248 14.5151 19.25 14.1278 19.25 13.7083C19.25 13.2888 19.0248 12.9016 18.6601 12.6942L11.9518 8.87917ZM15.7233 13.7083L12.5417 15.5177V11.8989L15.7233 13.7083Z" fill="#F4F4F4"/>
<path fill-rule="evenodd" clip-rule="evenodd" d="M13.9999 3.5L13.9069 3.50013C13.8467 3.50027 13.7585 3.50053 13.6458 3.50106C13.4204 3.50212 13.0967 3.50423 12.7021 3.50845C11.9135 3.51689 10.8396 3.53377 9.7013 3.5676C8.56482 3.60137 7.35466 3.65229 6.29619 3.7295C5.27033 3.80432 4.28795 3.90977 3.66536 4.07628L3.64918 4.08073C2.90241 4.292 2.22462 4.69661 1.68427 5.25367C1.14391 5.81074 0.760135 6.50053 0.571697 7.25339C0.565385 7.27861 0.559918 7.30403 0.555304 7.32962C0.175778 9.43417 -0.0100665 11.5691 0.000100111 13.7076C-0.0130254 15.8621 0.172834 18.0133 0.555313 20.1338C0.562148 20.1717 0.570854 20.2092 0.581399 20.2462C0.789144 20.9757 1.18152 21.6392 1.72061 22.1728C2.25971 22.7063 2.9273 23.0918 3.65888 23.292L3.66536 23.2937C4.28795 23.4602 5.27033 23.5657 6.29619 23.6405C7.35466 23.7177 8.56482 23.7686 9.7013 23.8024C10.8396 23.8362 11.9135 23.8531 12.7021 23.8615C13.0967 23.8658 13.4204 23.8679 13.6458 23.8689C13.7585 23.8695 13.8467 23.8697 13.9069 23.8699L13.9996 23.87L14.0933 23.8699C14.1535 23.8697 14.2417 23.8695 14.3544 23.8689C14.5798 23.8679 14.9036 23.8658 15.2981 23.8615C16.0868 23.8531 17.1606 23.8362 18.2989 23.8024C19.4354 23.7686 20.6456 23.7177 21.7041 23.6405C22.7299 23.5657 23.7123 23.4602 24.3349 23.2937L24.3511 23.2893C25.0978 23.078 25.7756 22.6734 26.316 22.1163C26.8563 21.5593 27.2401 20.8695 27.4285 20.1166C27.4349 20.0914 27.4403 20.0659 27.4449 20.0403C27.8216 17.9514 28.0074 15.8325 28.0001 13.7099C28.0133 11.555 27.8274 9.40357 27.4449 7.2829L26.2968 7.49L27.4285 7.20673C27.2401 6.45387 26.8563 5.76407 26.316 5.20701C25.7756 4.64994 25.0978 4.24534 24.3511 4.03406C24.3375 4.03023 24.3239 4.02664 24.3102 4.0233C23.6969 3.87353 22.7229 3.77764 21.6967 3.7093C20.6403 3.63894 19.4317 3.5925 18.2959 3.56168C17.1584 3.53082 16.0853 3.51541 15.297 3.50771C14.9027 3.50386 14.5792 3.50193 14.3539 3.50097C14.2413 3.50049 14.1532 3.50024 14.0931 3.50012L13.9999 3.5ZM14.0001 4.66667L14.0001 5.83333L14.0884 5.83345L14.3439 5.83428C14.5655 5.83523 14.8847 5.83713 15.2742 5.84093C16.0537 5.84855 17.1127 5.86377 18.2326 5.89415C19.3543 5.92459 20.5287 5.97002 21.5417 6.03747C22.5665 6.10572 23.3392 6.19173 23.7358 6.28503C24.0796 6.38602 24.3915 6.57427 24.6411 6.83161C24.8874 7.08555 25.0647 7.39807 25.1562 7.73939C25.5084 9.70677 25.6794 11.7023 25.6668 13.701L25.6668 13.7125C25.6739 15.6811 25.503 17.6462 25.1562 19.584C25.0647 19.9253 24.8874 20.2378 24.6411 20.4917C24.3886 20.752 24.0724 20.9417 23.7239 21.0418C23.3403 21.1428 22.5704 21.2378 21.5343 21.3134C20.5234 21.3871 19.3506 21.4368 18.2296 21.4701C17.1105 21.5034 16.0522 21.52 15.2732 21.5283C14.8839 21.5325 14.5648 21.5346 14.3435 21.5356C14.2328 21.5361 14.1465 21.5364 14.0882 21.5365H13.9121C13.8537 21.5364 13.7675 21.5361 13.6568 21.5356C13.4354 21.5346 13.1164 21.5325 12.7271 21.5283C11.948 21.52 10.8898 21.5034 9.7706 21.4701C8.64958 21.4368 7.47682 21.3871 6.46592 21.3134C5.42535 21.2375 4.65332 21.142 4.27144 21.0405C3.92821 20.946 3.61502 20.7648 3.36196 20.5143C3.1204 20.2753 2.9414 19.9808 2.84034 19.6568C2.49061 17.6961 2.32092 15.7074 2.33343 13.7157L2.33344 13.7026C2.32364 11.719 2.49453 9.7386 2.84399 7.78604C2.93557 7.44472 3.11279 7.13221 3.35911 6.87827C3.61163 6.61795 3.92788 6.42833 4.27636 6.32823C4.65993 6.22721 5.4298 6.13222 6.46592 6.05665C7.47682 5.98291 8.64958 5.93321 9.7706 5.8999C10.8898 5.86665 11.948 5.84999 12.7271 5.84165C13.1164 5.83749 13.4354 5.83541 13.6568 5.83437C13.7675 5.83385 13.8537 5.83359 13.9121 5.83346L13.999 5.83333L14.0001 4.66667Z" fill="#F4F4F4"/>
</g>
<defs>
<clipPath id="clip0_976_388">
<rect width="28" height="28" fill="white"/>
</clipPath>
</defs>
</svg>
