<svg width="28" height="28" viewBox="0 0 28 28" fill="none" xmlns="http://www.w3.org/2000/svg">
<path fill-rule="evenodd" clip-rule="evenodd" d="M17.5 1.1665C15.6435 1.1665 13.863 1.904 12.5503 3.21676C11.2375 4.52951 10.5 6.30999 10.5 8.1665V10.4998H8.16667C7.52233 10.4998 7 11.0222 7 11.6665V16.3332C7 16.9775 7.52233 17.4998 8.16667 17.4998H10.5V25.6665C10.5 26.3108 11.0223 26.8332 11.6667 26.8332H16.3333C16.9777 26.8332 17.5 26.3108 17.5 25.6665V17.4998H19.8333C20.3687 17.4998 20.8353 17.1355 20.9652 16.6161L22.1318 11.9495C22.219 11.6009 22.1407 11.2317 21.9196 10.9485C21.6985 10.6654 21.3593 10.4998 21 10.4998H17.5V8.1665H21C21.6443 8.1665 22.1667 7.64417 22.1667 6.99984V2.33317C22.1667 1.68884 21.6443 1.1665 21 1.1665H17.5ZM14.2002 4.86667C15.0753 3.9915 16.2623 3.49984 17.5 3.49984H19.8333V5.83317H17.5C16.8812 5.83317 16.2877 6.079 15.8501 6.51659C15.4125 6.95417 15.1667 7.54766 15.1667 8.1665V11.6665C15.1667 12.3108 15.689 12.8332 16.3333 12.8332H19.5058L18.9224 15.1665H16.3333C15.689 15.1665 15.1667 15.6888 15.1667 16.3332V24.4998H12.8333V16.3332C12.8333 15.6888 12.311 15.1665 11.6667 15.1665H9.33333V12.8332H11.6667C12.311 12.8332 12.8333 12.3108 12.8333 11.6665V8.1665C12.8333 6.92883 13.325 5.74184 14.2002 4.86667Z" fill="#F4F4F4"/>
</svg>
