<svg width="28" height="28" viewBox="0 0 28 28" fill="none" xmlns="http://www.w3.org/2000/svg">
<path fill-rule="evenodd" clip-rule="evenodd" d="M24.5527 4.00798C24.6704 3.87339 24.7604 3.71694 24.8177 3.54756C24.8749 3.37817 24.8982 3.19918 24.8863 3.02078C24.8743 2.84239 24.8274 2.6681 24.7481 2.50785C24.6688 2.34761 24.5587 2.20456 24.4241 2.08686C24.2895 1.96916 24.133 1.87913 23.9636 1.82189C23.7942 1.76466 23.6152 1.74135 23.4368 1.75329C23.2584 1.76524 23.0841 1.8122 22.9239 1.8915C22.7636 1.9708 22.6206 2.08089 22.5029 2.21548L15.5476 10.164L9.64444 2.29442C9.51766 2.12538 9.35326 1.98818 9.16426 1.89369C8.97526 1.7992 8.76686 1.75 8.55556 1.75H3.11111C2.85834 1.75 2.61056 1.82039 2.39553 1.95327C2.18051 2.08616 2.00674 2.27629 1.8937 2.50237C1.78065 2.72845 1.7328 2.98154 1.7555 3.23328C1.7782 3.48502 1.87056 3.72547 2.02222 3.92768L10.7837 15.6082L3.44731 23.9923C3.3296 24.1269 3.23956 24.2833 3.18233 24.4527C3.12509 24.6221 3.10178 24.8011 3.11372 24.9795C3.12567 25.1579 3.17263 25.3322 3.25194 25.4924C3.33124 25.6526 3.44134 25.7957 3.57593 25.9134C3.71052 26.0311 3.86698 26.1211 4.03638 26.1784C4.20577 26.2356 4.38477 26.2589 4.56317 26.247C4.74157 26.235 4.91588 26.1881 5.07613 26.1087C5.23638 26.0294 5.37944 25.9194 5.49714 25.7848L12.4524 17.8349L18.3556 25.7045C18.4823 25.8735 18.6467 26.0107 18.8357 26.1052C19.0247 26.1997 19.2331 26.2489 19.4444 26.2489H24.8889C25.1417 26.2489 25.3894 26.1785 25.6045 26.0456C25.8195 25.9127 25.9933 25.7226 26.1063 25.4965C26.2193 25.2704 26.2672 25.0174 26.2445 24.7656C26.2218 24.5139 26.1294 24.2734 25.9778 24.0712L17.2163 12.3907L24.5527 4.00798ZM20.125 23.5268L5.83333 4.4721H7.875L22.1667 23.5268H20.125Z" fill="#F4F4F4"/>
</svg>
