<svg width="28" height="28" viewBox="0 0 28 28" fill="none" xmlns="http://www.w3.org/2000/svg">
<path fill-rule="evenodd" clip-rule="evenodd" d="M11.3638 8.77155C12.4529 8.20645 13.6924 7.99914 14.9061 8.17912C16.1441 8.3627 17.2903 8.93959 18.1752 9.82457C19.0602 10.7095 19.6371 11.8557 19.8207 13.0937C20.0007 14.3074 19.7933 15.5469 19.2282 16.636C18.6631 17.7251 17.769 18.6083 16.673 19.1599C15.5771 19.7115 14.3351 19.9035 13.1237 19.7086C11.9123 19.5137 10.7932 18.9417 9.92565 18.0741C9.05806 17.2066 8.48612 16.0875 8.29119 14.8761C8.09626 13.6647 8.28827 12.4227 8.8399 11.3267C9.39153 10.2308 10.2747 9.33666 11.3638 8.77155ZM14.5638 10.4872C13.8356 10.3792 13.0919 10.5036 12.4384 10.8427C11.785 11.1817 11.2551 11.7182 10.9241 12.3758C10.5931 13.0334 10.4779 13.7786 10.5949 14.5054C10.7118 15.2322 11.055 15.9037 11.5756 16.4242C12.0961 16.9448 12.7676 17.2879 13.4944 17.4049C14.2212 17.5219 14.9664 17.4067 15.624 17.0757C16.2816 16.7447 16.8181 16.2148 17.1571 15.5614C17.4962 14.9079 17.6206 14.1642 17.5126 13.436C17.4024 12.6932 17.0563 12.0055 16.5253 11.4745C15.9943 10.9435 15.3066 10.5974 14.5638 10.4872Z" fill="#F4F4F4"/>
<path d="M20.4167 6.4165C19.7724 6.4165 19.25 6.93884 19.25 7.58317C19.25 8.2275 19.7724 8.74984 20.4167 8.74984H20.4284C21.0727 8.74984 21.595 8.2275 21.595 7.58317C21.595 6.93884 21.0727 6.4165 20.4284 6.4165H20.4167Z" fill="#F4F4F4"/>
<path fill-rule="evenodd" clip-rule="evenodd" d="M1.16669 8.1665C1.16669 4.30051 4.30069 1.1665 8.16669 1.1665H19.8334C23.6993 1.1665 26.8334 4.30051 26.8334 8.1665V19.8332C26.8334 23.6992 23.6993 26.8332 19.8334 26.8332H8.16669C4.30069 26.8332 1.16669 23.6992 1.16669 19.8332V8.1665ZM8.16669 3.49984C5.58936 3.49984 3.50002 5.58917 3.50002 8.1665V19.8332C3.50002 22.4105 5.58936 24.4998 8.16669 24.4998H19.8334C22.4107 24.4998 24.5 22.4105 24.5 19.8332V8.1665C24.5 5.58917 22.4107 3.49984 19.8334 3.49984H8.16669Z" fill="#F4F4F4"/>
</svg>
