<?xml version="1.0" encoding="UTF-8"?>
<svg id="Laag_1" data-name="Laag 1" xmlns="http://www.w3.org/2000/svg" viewBox="0 0 386.02 143.48">
  <defs>
    <style>
      .cls-1 {
        fill: #f4f4f4;
      }
    </style>
  </defs>
  <g>
    <path class="cls-1" d="M167.1,61.44h25.34v6.29h-25.34v-6.29ZM174.15,60.29c0-2.24.53-4.26,1.58-6.07,1.06-1.81,2.51-3.22,4.37-4.22,1.86-1.01,3.92-1.51,6.19-1.51h3.26l-.05,6.77h-.72c-1.82,0-3.26.39-4.32,1.18-1.06.78-1.58,1.98-1.58,3.58v24.29h-8.74v-24ZM195.13,48.48h8.69v35.81h-8.69v-35.81Z"/>
    <path class="cls-1" d="M212.67,83.4c-2.29-1.2-4.08-2.83-5.38-4.9-1.3-2.06-1.93-4.33-1.9-6.79.03-2.5.71-4.77,2.04-6.82,1.33-2.05,3.15-3.66,5.47-4.85,2.32-1.18,4.92-1.78,7.8-1.78s5.66.59,7.94,1.78c2.29,1.18,4.06,2.79,5.3,4.82s1.87,4.3,1.87,6.79c-.03,2.5-.71,4.78-2.04,6.84-1.33,2.06-3.15,3.7-5.47,4.9-2.32,1.2-4.94,1.8-7.85,1.8s-5.51-.6-7.8-1.8ZM224,77.67c1.07-.61,1.91-1.43,2.52-2.47.61-1.04.91-2.2.91-3.48.03-1.31-.22-2.49-.74-3.53-.53-1.04-1.3-1.86-2.33-2.45s-2.22-.89-3.6-.89-2.55.3-3.62.91c-1.07.61-1.91,1.43-2.52,2.47-.61,1.04-.95,2.18-1.01,3.43-.03,1.28.23,2.45.79,3.5.56,1.06,1.36,1.89,2.4,2.5,1.04.61,2.23.91,3.58.91s2.55-.3,3.62-.91Z"/>
    <path class="cls-1" d="M256.23,70.08l-4.99,14.21h-9.94l-7.54-25.1h8.88l4.08,16.46,5.47-16.46h8.64l5.38,15.98,4.7-15.98h9.07l-8.69,25.1h-10.18l-4.9-14.21Z"/>
    <path class="cls-1" d="M285.05,83.86c-2.19-.9-3.88-2.07-5.06-3.53s-1.81-3.02-1.87-4.68h8.26c.19.99.76,1.82,1.7,2.5.94.67,2.34,1.02,4.2,1.06,1.25.03,2.3-.08,3.14-.34.85-.26,1.49-.58,1.92-.98.43-.4.65-.82.65-1.27s-.15-.82-.46-1.13c-.3-.3-.86-.55-1.66-.74-.8-.19-1.94-.35-3.41-.48-4.06-.35-7.18-1.22-9.34-2.59s-3.22-3.23-3.19-5.57c0-1.47.52-2.8,1.56-3.98s2.51-2.12,4.42-2.81c1.9-.69,4.14-1.03,6.7-1.03s4.98.39,6.96,1.18,3.54,1.86,4.68,3.24c1.13,1.38,1.83,2.96,2.09,4.75h-8.35c-.19-.96-.75-1.71-1.68-2.26-.93-.54-2.21-.82-3.84-.82-.93,0-1.71.12-2.35.36-.64.24-1.1.53-1.39.86s-.42.7-.38,1.08c.06.61.44,1.1,1.13,1.46.69.37,1.83.62,3.43.74,3.49.32,6.23.82,8.23,1.51,2,.69,3.42,1.55,4.25,2.59.83,1.04,1.26,2.3,1.3,3.77.03,1.5-.48,2.9-1.54,4.18-1.06,1.28-2.63,2.31-4.73,3.1-2.1.78-4.62,1.18-7.56,1.18s-5.61-.45-7.8-1.34Z"/>
    <path class="cls-1" d="M313.23,83.45c-1.81-1.17-3.22-2.78-4.25-4.85-1.02-2.06-1.54-4.36-1.54-6.89s.56-4.72,1.68-6.77c1.12-2.05,2.65-3.67,4.58-4.87,1.94-1.2,4.04-1.8,6.31-1.8s4.3.59,6.1,1.78c1.79,1.18,3.18,2.8,4.18,4.85.99,2.05,1.49,4.32,1.49,6.82-.06,2.46-.65,4.73-1.75,6.79-1.1,2.06-2.59,3.7-4.46,4.9-1.87,1.2-3.94,1.8-6.22,1.8s-4.31-.58-6.12-1.75ZM325.54,78.22c1.09-.66,1.97-1.55,2.64-2.69s1.02-2.41,1.06-3.82c0-1.41-.29-2.69-.86-3.84-.58-1.15-1.37-2.05-2.38-2.69-1.01-.64-2.14-.96-3.38-.96-1.31,0-2.5.33-3.55.98-1.06.66-1.9,1.56-2.54,2.71-.64,1.15-.96,2.43-.96,3.84s.29,2.68.86,3.82,1.36,2.02,2.35,2.66c.99.64,2.1.96,3.31.96s2.37-.33,3.46-.98ZM329.19,59.19h8.69l.05,25.1h-8.69l-.05-25.1Z"/>
  </g>
  <path class="cls-1" d="M97.91,98.33l-37.33-22.22h32.64v-9.38h-36.88c-3.76,0-6.94,2.43-7.94,6.03-.99,3.6.5,7.3,3.72,9.21l55.17,32.85V44.5l37.33,22.22h-32.64v9.38h36.88c3.76,0,6.95-2.43,7.94-6.04.99-3.6-.5-7.3-3.72-9.21l-55.17-32.85v70.32Z"/>
</svg>